<?xml version="1.0" standalone="no"?>
<!DOCTYPE svg PUBLIC "-//W3C//DTD SVG 20010904//EN"
 "http://www.w3.org/TR/2001/REC-SVG-20010904/DTD/svg10.dtd">
<svg version="1.0" xmlns="http://www.w3.org/2000/svg"
 width="200.000000pt" height="200.000000pt" viewBox="0 0 200.000000 200.000000"
 preserveAspectRatio="xMidYMid meet">
<metadata>
Created by potrace 1.14, written by Peter Selinger 2001-2017
</metadata>
<g transform="translate(0.000000,200.000000) scale(0.100000,-0.100000)"
fill="#000000" stroke="none">
<path d="M950 1792 c-350 -28 -636 -274 -713 -615 -20 -89 -16 -269 7 -356 75
-278 286 -488 566 -563 103 -28 277 -28 379 -1 l73 20 192 -33 c217 -38 225
-39 251 -20 26 19 23 61 -12 136 -16 36 -40 90 -52 121 l-23 56 34 54 c86 137
120 245 124 405 6 231 -79 432 -248 589 -155 143 -378 223 -578 207z m220
-143 c114 -31 204 -83 291 -169 83 -82 132 -162 170 -275 34 -101 34 -280 0
-380 -26 -79 -70 -162 -112 -216 -16 -20 -29 -46 -29 -58 0 -11 18 -62 39
-112 l39 -91 -41 6 c-23 3 -85 14 -137 23 -114 21 -148 20 -220 -1 -75 -23
-219 -27 -304 -9 -317 66 -541 357 -523 678 19 325 264 587 582 623 92 10 154
5 245 -19z"/>
<path d="M556 1179 c-193 -45 -183 -321 12 -352 88 -14 182 51 200 138 27 130
-85 243 -212 214z m82 -132 c22 -17 15 -75 -12 -92 -46 -30 -106 17 -87 69 16
42 61 53 99 23z"/>
<path d="M950 1178 c-80 -22 -134 -89 -132 -168 1 -64 5 -78 36 -116 37 -47
81 -67 143 -67 59 1 110 27 143 74 26 36 40 115 27 154 -30 93 -126 147 -217
123z m88 -130 c7 -7 12 -27 12 -45 0 -43 -35 -68 -73 -54 -44 17 -55 59 -24
99 12 15 69 16 85 0z"/>
<path d="M1356 1179 c-83 -20 -139 -88 -138 -169 1 -64 5 -77 36 -116 78 -98
222 -90 293 17 61 92 9 233 -97 263 -46 13 -55 14 -94 5z m82 -132 c16 -12 16
-72 -1 -85 -7 -6 -25 -13 -40 -16 -20 -3 -31 2 -47 21 -46 59 28 127 88 80z"/>
</g>
</svg>
